<svg xmlns="http://www.w3.org/2000/svg" viewBox="0 0 30 20"><rect width="30" height="20" fill="#fff"/><rect y="0.000" width="30" height="1.538" fill="#B22234"/><rect y="3.077" width="30" height="1.538" fill="#B22234"/><rect y="6.154" width="30" height="1.538" fill="#B22234"/><rect y="9.231" width="30" height="1.538" fill="#B22234"/><rect y="12.308" width="30" height="1.538" fill="#B22234"/><rect y="15.385" width="30" height="1.538" fill="#B22234"/><rect y="18.462" width="30" height="1.538" fill="#B22234"/><rect width="12" height="10.769" fill="#3C3B6E"/><circle cx="1.30" cy="1.20" r=".45" fill="#fff"/><circle cx="3.60" cy="1.20" r=".45" fill="#fff"/><circle cx="5.90" cy="1.20" r=".45" fill="#fff"/><circle cx="8.20" cy="1.20" r=".45" fill="#fff"/><circle cx="10.50" cy="1.20" r=".45" fill="#fff"/><circle cx="2.45" cy="3.15" r=".45" fill="#fff"/><circle cx="4.75" cy="3.15" r=".45" fill="#fff"/><circle cx="7.05" cy="3.15" r=".45" fill="#fff"/><circle cx="9.35" cy="3.15" r=".45" fill="#fff"/><circle cx="1.30" cy="5.10" r=".45" fill="#fff"/><circle cx="3.60" cy="5.10" r=".45" fill="#fff"/><circle cx="5.90" cy="5.10" r=".45" fill="#fff"/><circle cx="8.20" cy="5.10" r=".45" fill="#fff"/><circle cx="10.50" cy="5.10" r=".45" fill="#fff"/><circle cx="2.45" cy="7.05" r=".45" fill="#fff"/><circle cx="4.75" cy="7.05" r=".45" fill="#fff"/><circle cx="7.05" cy="7.05" r=".45" fill="#fff"/><circle cx="9.35" cy="7.05" r=".45" fill="#fff"/><circle cx="1.30" cy="9.00" r=".45" fill="#fff"/><circle cx="3.60" cy="9.00" r=".45" fill="#fff"/><circle cx="5.90" cy="9.00" r=".45" fill="#fff"/><circle cx="8.20" cy="9.00" r=".45" fill="#fff"/><circle cx="10.50" cy="9.00" r=".45" fill="#fff"/></svg>
